<?xml version="1.0" standalone="no"?>
<!DOCTYPE svg PUBLIC "-//W3C//DTD SVG 20010904//EN"
 "http://www.w3.org/TR/2001/REC-SVG-20010904/DTD/svg10.dtd">
<svg version="1.0" xmlns="http://www.w3.org/2000/svg"
 width="1280.000000pt" height="900.000000pt" viewBox="0 0 1280.000000 900.000000"
 preserveAspectRatio="xMidYMid meet">
<metadata>
Created by potrace 1.15, written by Peter Selinger 2001-2017
</metadata>
<g transform="translate(0.000000,900.000000) scale(0.100000,-0.100000)"
fill="#000000" stroke="none">
<path d="M2980 8990 c-617 -33 -1176 -113 -1685 -241 -208 -53 -554 -168 -672
-224 l-93 -44 0 -205 0 -204 -33 -7 c-57 -13 -320 -102 -409 -140 l-88 -37 0
-3944 0 -3943 83 35 c405 175 935 308 1582 398 776 108 1707 131 2455 61 754
-70 1565 -219 2173 -399 l117 -35 53 23 c143 63 516 171 815 235 944 203 2055
266 3102 175 742 -64 1622 -227 2220 -411 80 -25 157 -48 173 -53 l27 -9 0
3939 0 3939 -100 31 c-55 17 -173 50 -263 74 l-162 43 -5 224 -5 223 -50 19
c-285 106 -919 263 -1379 342 -603 103 -1045 140 -1661 140 -502 -1 -815 -20
-1245 -75 -496 -65 -1033 -189 -1387 -321 -76 -29 -142 -52 -148 -52 -5 1 -98
26 -205 58 -627 183 -1356 314 -2064 371 -228 18 -911 26 -1146 14z m975 -270
c540 -34 1045 -105 1570 -221 314 -69 716 -177 738 -199 5 -4 6 -1651 2 -3660
-7 -3345 -9 -3651 -24 -3647 -707 203 -1330 318 -2082 384 -288 25 -1212 25
-1569 0 -639 -46 -1119 -110 -1573 -211 -112 -25 -207 -46 -211 -46 -3 0 -6
1618 -6 3595 0 3413 1 3595 17 3603 72 38 505 165 738 217 447 100 844 151
1460 188 131 8 798 6 940 -3z m5787 -5 c713 -47 1519 -189 2143 -377 l110 -33
3 -3601 2 -3601 -92 19 c-566 118 -1204 203 -1893 254 -288 21 -1022 30 -1305
15 -769 -40 -1461 -155 -2014 -335 l-166 -54 2 3655 3 3655 50 19 c28 11 58
22 67 25 17 5 18 -141 20 -2937 l3 -2942 193 162 193 163 32 -25 c18 -14 109
-88 202 -165 l170 -141 3 3050 c2 2427 5 3051 15 3054 25 9 366 65 517 84 177
22 453 48 650 60 232 14 857 12 1092 -4z"/>
<path d="M3050 7259 c-340 -15 -657 -44 -970 -90 -231 -33 -337 -53 -347 -63
-7 -7 37 -256 46 -256 3 0 40 6 81 14 227 44 619 91 970 118 257 20 1035 16
1294 -5 276 -24 507 -51 749 -88 109 -17 200 -29 202 -27 3 3 45 236 45 251 0
8 -33 14 -250 46 -642 94 -1218 126 -1820 100z"/>
<path d="M2968 6590 c-353 -19 -731 -59 -1041 -110 -98 -17 -182 -30 -187 -30
-6 0 -10 -12 -10 -27 1 -48 45 -238 55 -236 184 31 505 77 650 93 338 35 453
42 887 47 429 5 660 -2 963 -32 77 -8 141 -13 142 -12 1 2 7 43 12 92 6 50 13
108 16 131 l6 41 -73 7 c-312 29 -476 37 -843 41 -225 2 -485 0 -577 -5z"/>
<path d="M2890 5919 c-204 -13 -477 -38 -655 -60 -188 -24 -494 -75 -503 -83
-5 -6 35 -246 43 -254 2 -2 88 10 192 27 431 69 692 94 1186 113 555 21 1077
-11 1704 -104 117 -17 215 -29 217 -27 6 6 49 249 45 254 -6 5 -310 52 -489
74 -185 24 -436 47 -655 61 -185 12 -887 11 -1085 -1z"/>
<path d="M3040 5259 c-436 -18 -991 -80 -1296 -144 l-21 -5 25 -127 c14 -71
26 -129 27 -130 1 -2 35 4 76 11 679 130 1649 170 2412 100 88 -8 162 -12 164
-10 2 2 10 59 18 127 14 129 12 138 -27 139 -9 0 -95 7 -190 15 -388 33 -779
41 -1188 24z"/>
<path d="M3045 4594 c-539 -31 -847 -65 -1277 -140 -33 -6 -38 -10 -38 -33 1
-46 45 -236 55 -234 650 110 1032 143 1660 143 557 0 982 -33 1485 -115 79
-13 145 -23 147 -22 6 7 43 249 39 256 -3 5 -25 11 -48 14 -24 4 -133 20 -243
36 -467 70 -764 92 -1290 95 -236 2 -457 2 -490 0z"/>
<path d="M9010 7263 c-508 -19 -1112 -81 -1392 -144 -46 -11 -47 -12 -41 -42
17 -94 44 -221 47 -224 2 -2 53 5 112 16 233 43 539 81 874 108 271 21 1042
24 1290 5 309 -24 647 -63 881 -102 64 -11 123 -20 130 -20 11 0 20 35 36 127
12 71 20 129 19 130 -10 10 -458 74 -676 97 -448 47 -892 64 -1280 49z"/>
<path d="M8811 6589 c-205 -10 -477 -34 -691 -60 -197 -23 -532 -78 -542 -87
-6 -6 4 -66 33 -210 8 -42 14 -52 27 -48 34 11 318 56 471 76 643 81 1407 94
2021 35 79 -7 145 -13 146 -12 5 6 29 259 24 262 -10 6 -368 35 -555 45 -219
11 -695 11 -934 -1z"/>
<path d="M8740 5919 c-214 -13 -481 -38 -655 -60 -151 -19 -506 -76 -512 -82
-4 -5 44 -248 51 -254 3 -3 72 6 153 20 944 165 2072 164 3036 -2 77 -13 110
-15 112 -7 6 19 45 249 42 251 -4 4 -267 45 -412 65 -135 18 -319 38 -570 61
-153 14 -1067 20 -1245 8z"/>
</g>
</svg>
