<svg height="597.33331pt" viewBox="-18 -18 597.33331 597.33331" width="597.33331pt" xmlns="http://www.w3.org/2000/svg"><path d="m0 450c.0351562 27.601562 22.398438 49.964844 50 50h371c-13.453125-13.15625-21.023438-31.1875-21-50v-30h-400zm0 0"/><path d="m410 40c0 5.523438-4.476562 10-10 10s-10-4.476562-10-10 4.476562-10 10-10 10 4.476562 10 10zm0 0"/><path d="m60 520h440v40h-440zm0 0"/><path d="m500 100h-440v300h350c5.523438 0 10 4.476562 10 10v40c.035156 27.601562 22.398438 49.964844 50 50h30zm0 0"/><path d="m520 0h40v560h-40zm0 0"/><path d="m290 40c0 5.523438-4.476562 10-10 10s-10-4.476562-10-10 4.476562-10 10-10 10 4.476562 10 10zm0 0"/><path d="m60 80h440v-80h-440zm340-70c16.566406 0 30 13.433594 30 30s-13.433594 30-30 30-30-13.433594-30-30 13.433594-30 30-30zm-120 0c16.566406 0 30 13.433594 30 30s-13.433594 30-30 30-30-13.433594-30-30 13.433594-30 30-30zm-120 0c16.566406 0 30 13.433594 30 30s-13.433594 30-30 30-30-13.433594-30-30 13.433594-30 30-30zm0 0"/><path d="m170 40c0 5.523438-4.476562 10-10 10s-10-4.476562-10-10 4.476562-10 10-10 10 4.476562 10 10zm0 0"/></svg>